<?xml version="1.0" encoding="UTF-8" standalone="no"?>
<!DOCTYPE svg PUBLIC "-//W3C//DTD SVG 1.1//EN"
 "http://www.w3.org/Graphics/SVG/1.1/DTD/svg11.dtd">
<!-- Generated by graphviz version 2.50.0 (20211204.2007)
 -->
<!-- Pages: 1 -->
<svg width="1093pt" height="692pt"
 viewBox="0.00 0.00 1092.61 692.00" xmlns="http://www.w3.org/2000/svg" xmlns:xlink="http://www.w3.org/1999/xlink">
<g id="graph0" class="graph" transform="scale(1 1) rotate(0) translate(4 688)">
<polygon fill="white" stroke="transparent" points="-4,4 -4,-688 1088.61,-688 1088.61,4 -4,4"/>
<!-- EnergyExpressions -->
<g id="node1" class="node">
<title>EnergyExpressions</title>
<ellipse fill="none" stroke="red" cx="100.74" cy="-450" rx="100.98" ry="18"/>
<text text-anchor="middle" x="100.74" y="-446.3" font-family="Times,serif" font-size="14.00">EnergyExpressions</text>
</g>
<!-- AtomicLevels -->
<g id="node2" class="node">
<title>AtomicLevels</title>
<ellipse fill="none" stroke="red" cx="229.74" cy="-342" rx="72.59" ry="18"/>
<text text-anchor="middle" x="229.74" y="-338.3" font-family="Times,serif" font-size="14.00">AtomicLevels</text>
</g>
<!-- EnergyExpressions&#45;&gt;AtomicLevels -->
<g id="edge1" class="edge">
<title>EnergyExpressions&#45;&gt;AtomicLevels</title>
<path fill="none" stroke="black" d="M121.18,-432.2C143.01,-414.27 177.74,-385.73 202.02,-365.78"/>
<polygon fill="black" stroke="black" points="204.32,-368.42 209.82,-359.37 199.87,-363.01 204.32,-368.42"/>
</g>
<!-- CompositeTypes -->
<g id="node3" class="node">
<title>CompositeTypes</title>
<polygon fill="none" stroke="blue" points="597.74,-36 463.74,-36 463.74,0 597.74,0 597.74,-36"/>
<text text-anchor="middle" x="530.74" y="-14.3" font-family="Times,serif" font-size="14.00">CompositeTypes</text>
</g>
<!-- CompactBases -->
<g id="node4" class="node">
<title>CompactBases</title>
<polygon fill="none" stroke="blue" points="641.74,-468 519.74,-468 519.74,-432 641.74,-432 641.74,-468"/>
<text text-anchor="middle" x="580.74" y="-446.3" font-family="Times,serif" font-size="14.00">CompactBases</text>
</g>
<!-- QuasiArrays -->
<g id="node5" class="node">
<title>QuasiArrays</title>
<polygon fill="none" stroke="blue" points="582.74,-252 478.74,-252 478.74,-216 582.74,-216 582.74,-252"/>
<text text-anchor="middle" x="530.74" y="-230.3" font-family="Times,serif" font-size="14.00">QuasiArrays</text>
</g>
<!-- CompactBases&#45;&gt;QuasiArrays -->
<g id="edge2" class="edge">
<title>CompactBases&#45;&gt;QuasiArrays</title>
<path fill="none" stroke="black" d="M578.91,-431.84C576.12,-407.58 570.11,-361.98 560.74,-324 555.48,-302.69 547.46,-279.19 541.04,-261.69"/>
<polygon fill="black" stroke="black" points="544.25,-260.29 537.47,-252.14 537.69,-262.74 544.25,-260.29"/>
</g>
<!-- FastGaussQuadrature -->
<g id="node6" class="node">
<title>FastGaussQuadrature</title>
<polygon fill="none" stroke="blue" points="782.24,-360 609.24,-360 609.24,-324 782.24,-324 782.24,-360"/>
<text text-anchor="middle" x="695.74" y="-338.3" font-family="Times,serif" font-size="14.00">FastGaussQuadrature</text>
</g>
<!-- CompactBases&#45;&gt;FastGaussQuadrature -->
<g id="edge3" class="edge">
<title>CompactBases&#45;&gt;FastGaussQuadrature</title>
<path fill="none" stroke="black" d="M599.22,-431.97C618.22,-414.46 647.98,-387.02 669.44,-367.25"/>
<polygon fill="black" stroke="black" points="671.95,-369.69 676.93,-360.34 667.2,-364.54 671.95,-369.69"/>
</g>
<!-- ContinuumArrays -->
<g id="node7" class="node">
<title>ContinuumArrays</title>
<polygon fill="none" stroke="blue" points="552.24,-360 409.24,-360 409.24,-324 552.24,-324 552.24,-360"/>
<text text-anchor="middle" x="480.74" y="-338.3" font-family="Times,serif" font-size="14.00">ContinuumArrays</text>
</g>
<!-- CompactBases&#45;&gt;ContinuumArrays -->
<g id="edge4" class="edge">
<title>CompactBases&#45;&gt;ContinuumArrays</title>
<path fill="none" stroke="black" d="M564.67,-431.97C548.3,-414.61 522.72,-387.5 504.11,-367.77"/>
<polygon fill="black" stroke="black" points="506.51,-365.21 497.1,-360.34 501.42,-370.02 506.51,-365.21"/>
</g>
<!-- DomainSets -->
<g id="node8" class="node">
<title>DomainSets</title>
<polygon fill="none" stroke="blue" points="582.24,-144 479.24,-144 479.24,-108 582.24,-108 582.24,-144"/>
<text text-anchor="middle" x="530.74" y="-122.3" font-family="Times,serif" font-size="14.00">DomainSets</text>
</g>
<!-- QuasiArrays&#45;&gt;DomainSets -->
<g id="edge24" class="edge">
<title>QuasiArrays&#45;&gt;DomainSets</title>
<path fill="none" stroke="black" d="M530.74,-215.97C530.74,-199.38 530.74,-173.88 530.74,-154.43"/>
<polygon fill="black" stroke="black" points="534.24,-154.34 530.74,-144.34 527.24,-154.34 534.24,-154.34"/>
</g>
<!-- ContinuumArrays&#45;&gt;QuasiArrays -->
<g id="edge12" class="edge">
<title>ContinuumArrays&#45;&gt;QuasiArrays</title>
<path fill="none" stroke="black" d="M488.77,-323.97C496.71,-307.15 508.96,-281.17 518.18,-261.62"/>
<polygon fill="black" stroke="black" points="521.46,-262.88 522.56,-252.34 515.13,-259.89 521.46,-262.88"/>
</g>
<!-- DomainSets&#45;&gt;CompositeTypes -->
<g id="edge5" class="edge">
<title>DomainSets&#45;&gt;CompositeTypes</title>
<path fill="none" stroke="black" d="M530.74,-107.97C530.74,-91.38 530.74,-65.88 530.74,-46.43"/>
<polygon fill="black" stroke="black" points="534.24,-46.34 530.74,-36.34 527.24,-46.34 534.24,-46.34"/>
</g>
<!-- Optim -->
<g id="node9" class="node">
<title>Optim</title>
<polygon fill="none" stroke="green" points="848.74,-576 792.6,-558 848.74,-540 904.88,-558 848.74,-576"/>
<text text-anchor="middle" x="848.74" y="-554.3" font-family="Times,serif" font-size="14.00">Optim</text>
</g>
<!-- LineSearches -->
<g id="node10" class="node">
<title>LineSearches</title>
<polygon fill="none" stroke="green" points="980.74,-468 877.01,-450 980.74,-432 1084.47,-450 980.74,-468"/>
<text text-anchor="middle" x="980.74" y="-446.3" font-family="Times,serif" font-size="14.00">LineSearches</text>
</g>
<!-- Optim&#45;&gt;LineSearches -->
<g id="edge6" class="edge">
<title>Optim&#45;&gt;LineSearches</title>
<path fill="none" stroke="black" d="M863.88,-544.84C886.22,-526.9 928.28,-493.12 955.38,-471.36"/>
<polygon fill="black" stroke="black" points="957.67,-474.02 963.27,-465.03 953.28,-468.56 957.67,-474.02"/>
</g>
<!-- NLSolversBase -->
<g id="node11" class="node">
<title>NLSolversBase</title>
<polygon fill="none" stroke="green" points="967.74,-360 852.95,-342 967.74,-324 1082.53,-342 967.74,-360"/>
<text text-anchor="middle" x="967.74" y="-338.3" font-family="Times,serif" font-size="14.00">NLSolversBase</text>
</g>
<!-- Optim&#45;&gt;NLSolversBase -->
<g id="edge7" class="edge">
<title>Optim&#45;&gt;NLSolversBase</title>
<path fill="none" stroke="black" d="M847.8,-540.09C847.14,-514.95 848.79,-466.92 867.74,-432 883.76,-402.48 913.57,-377.92 936.49,-362.13"/>
<polygon fill="black" stroke="black" points="938.52,-364.99 944.89,-356.52 934.63,-359.16 938.52,-364.99"/>
</g>
<!-- LineSearches&#45;&gt;NLSolversBase -->
<g id="edge8" class="edge">
<title>LineSearches&#45;&gt;NLSolversBase</title>
<path fill="none" stroke="black" d="M978.65,-431.97C976.61,-415.28 973.45,-389.58 971.06,-370.08"/>
<polygon fill="black" stroke="black" points="974.52,-369.49 969.82,-359.99 967.57,-370.34 974.52,-369.49"/>
</g>
<!-- CoulombIntegrals -->
<g id="node12" class="node">
<title>CoulombIntegrals</title>
<ellipse fill="none" stroke="red" cx="580.74" cy="-558" rx="93.68" ry="18"/>
<text text-anchor="middle" x="580.74" y="-554.3" font-family="Times,serif" font-size="14.00">CoulombIntegrals</text>
</g>
<!-- CoulombIntegrals&#45;&gt;CompactBases -->
<g id="edge10" class="edge">
<title>CoulombIntegrals&#45;&gt;CompactBases</title>
<path fill="none" stroke="black" d="M580.74,-539.97C580.74,-523.38 580.74,-497.88 580.74,-478.43"/>
<polygon fill="black" stroke="black" points="584.24,-478.34 580.74,-468.34 577.24,-478.34 584.24,-478.34"/>
</g>
<!-- CoulombIntegrals&#45;&gt;QuasiArrays -->
<g id="edge9" class="edge">
<title>CoulombIntegrals&#45;&gt;QuasiArrays</title>
<path fill="none" stroke="black" d="M615.58,-541.15C690.27,-504.98 854.07,-412.61 790.74,-324 746,-261.4 654.45,-242.35 592.82,-236.83"/>
<polygon fill="black" stroke="black" points="593.06,-233.33 582.82,-236.02 592.5,-240.31 593.06,-233.33"/>
</g>
<!-- CoulombIntegrals&#45;&gt;ContinuumArrays -->
<g id="edge11" class="edge">
<title>CoulombIntegrals&#45;&gt;ContinuumArrays</title>
<path fill="none" stroke="black" d="M563.77,-540.15C547.77,-523.3 524.28,-495.95 510.74,-468 495.44,-436.4 487.61,-396.43 483.86,-370.31"/>
<polygon fill="black" stroke="black" points="487.32,-369.81 482.52,-360.36 480.38,-370.74 487.32,-369.81"/>
</g>
<!-- AngularMomentumAlgebra -->
<g id="node13" class="node">
<title>AngularMomentumAlgebra</title>
<ellipse fill="none" stroke="red" cx="179.74" cy="-558" rx="136.48" ry="18"/>
<text text-anchor="middle" x="179.74" y="-554.3" font-family="Times,serif" font-size="14.00">AngularMomentumAlgebra</text>
</g>
<!-- AngularMomentumAlgebra&#45;&gt;EnergyExpressions -->
<g id="edge14" class="edge">
<title>AngularMomentumAlgebra&#45;&gt;EnergyExpressions</title>
<path fill="none" stroke="black" d="M167.05,-539.97C154.21,-522.74 134.21,-495.9 119.53,-476.21"/>
<polygon fill="black" stroke="black" points="122.18,-473.92 113.4,-467.99 116.57,-478.1 122.18,-473.92"/>
</g>
<!-- AngularMomentumAlgebra&#45;&gt;AtomicLevels -->
<g id="edge13" class="edge">
<title>AngularMomentumAlgebra&#45;&gt;AtomicLevels</title>
<path fill="none" stroke="black" d="M186.76,-539.89C193.78,-522.18 204.4,-493.57 210.74,-468 218.97,-434.82 224.22,-395.74 227.07,-370.23"/>
<polygon fill="black" stroke="black" points="230.56,-370.5 228.14,-360.18 223.6,-369.75 230.56,-370.5"/>
</g>
<!-- AtomicStructure -->
<g id="node14" class="node">
<title>AtomicStructure</title>
<ellipse fill="none" stroke="red" cx="420.74" cy="-666" rx="87.99" ry="18"/>
<text text-anchor="middle" x="420.74" y="-662.3" font-family="Times,serif" font-size="14.00">AtomicStructure</text>
</g>
<!-- AtomicStructure&#45;&gt;EnergyExpressions -->
<g id="edge22" class="edge">
<title>AtomicStructure&#45;&gt;EnergyExpressions</title>
<path fill="none" stroke="black" d="M341.39,-658.14C239.78,-647.53 72.31,-623.22 34.74,-576 9.46,-544.23 44.42,-501.31 72.32,-474.93"/>
<polygon fill="black" stroke="black" points="74.93,-477.28 79.94,-467.95 70.21,-472.12 74.93,-477.28"/>
</g>
<!-- AtomicStructure&#45;&gt;AtomicLevels -->
<g id="edge23" class="edge">
<title>AtomicStructure&#45;&gt;AtomicLevels</title>
<path fill="none" stroke="black" d="M410.57,-647.95C399.89,-630.04 382.62,-601.05 367.74,-576 323.01,-500.68 270.29,-411.57 244.9,-368.64"/>
<polygon fill="black" stroke="black" points="247.87,-366.79 239.77,-359.96 241.85,-370.35 247.87,-366.79"/>
</g>
<!-- AtomicStructure&#45;&gt;CompactBases -->
<g id="edge17" class="edge">
<title>AtomicStructure&#45;&gt;CompactBases</title>
<path fill="none" stroke="black" d="M425.89,-648C434.08,-622.73 451.86,-574.55 477.74,-540 497.09,-514.17 525.11,-490.58 547.03,-474.18"/>
<polygon fill="black" stroke="black" points="549.12,-476.99 555.11,-468.26 544.98,-471.35 549.12,-476.99"/>
</g>
<!-- AtomicStructure&#45;&gt;QuasiArrays -->
<g id="edge15" class="edge">
<title>AtomicStructure&#45;&gt;QuasiArrays</title>
<path fill="none" stroke="black" d="M413.74,-647.72C393.66,-595.3 341.03,-434.86 399.74,-324 416.11,-293.08 448.57,-270.92 477.08,-256.44"/>
<polygon fill="black" stroke="black" points="478.71,-259.53 486.17,-252 475.65,-253.24 478.71,-259.53"/>
</g>
<!-- AtomicStructure&#45;&gt;ContinuumArrays -->
<g id="edge20" class="edge">
<title>AtomicStructure&#45;&gt;ContinuumArrays</title>
<path fill="none" stroke="black" d="M423.97,-647.69C433.84,-594.71 463.69,-434.5 475.68,-370.17"/>
<polygon fill="black" stroke="black" points="479.18,-370.48 477.57,-360.01 472.3,-369.2 479.18,-370.48"/>
</g>
<!-- AtomicStructure&#45;&gt;Optim -->
<g id="edge18" class="edge">
<title>AtomicStructure&#45;&gt;Optim</title>
<path fill="none" stroke="black" d="M474.51,-651.68C561.64,-630.1 731.69,-587.99 808.9,-568.87"/>
<polygon fill="black" stroke="black" points="809.85,-572.24 818.72,-566.44 808.17,-565.44 809.85,-572.24"/>
</g>
<!-- AtomicStructure&#45;&gt;LineSearches -->
<g id="edge21" class="edge">
<title>AtomicStructure&#45;&gt;LineSearches</title>
<path fill="none" stroke="black" d="M501.44,-658.92C623.88,-648.31 849.2,-622.93 913.74,-576 946.91,-551.88 965.28,-506.24 974.07,-477.29"/>
<polygon fill="black" stroke="black" points="977.5,-478.02 976.88,-467.45 970.76,-476.1 977.5,-478.02"/>
</g>
<!-- AtomicStructure&#45;&gt;CoulombIntegrals -->
<g id="edge19" class="edge">
<title>AtomicStructure&#45;&gt;CoulombIntegrals</title>
<path fill="none" stroke="black" d="M445.39,-648.67C472.68,-630.59 516.81,-601.35 547.22,-581.2"/>
<polygon fill="black" stroke="black" points="549.4,-583.96 555.8,-575.52 545.53,-578.13 549.4,-583.96"/>
</g>
<!-- AtomicStructure&#45;&gt;AngularMomentumAlgebra -->
<g id="edge16" class="edge">
<title>AtomicStructure&#45;&gt;AngularMomentumAlgebra</title>
<path fill="none" stroke="black" d="M385.44,-649.47C343.36,-630.97 272.91,-599.98 226.38,-579.51"/>
<polygon fill="black" stroke="black" points="227.68,-576.26 217.12,-575.44 224.87,-582.67 227.68,-576.26"/>
</g>
</g>
</svg>
